<?xml version="1.0" encoding="UTF-8"?>
<svg version="1.1" xmlns="http://www.w3.org/2000/svg" width="1268" height="1268">
<path d="M0 0 C4.31174986 4.01902556 7.59832781 8.40541437 10.9375 13.25 C11.52595703 14.09771973 12.11441406 14.94543945 12.72070312 15.81884766 C38.0485527 52.51093713 62.30174821 90.03477664 84 129 C84.47711426 129.85658203 84.95422852 130.71316406 85.44580078 131.59570312 C106.21137085 169.0138894 124.51620243 207.11027594 140 247 C140.45101074 248.16080078 140.90202148 249.32160156 141.36669922 250.51757812 C155.61466963 287.62486714 165.49259922 326.66733299 171 366 C171.16516113 367.16885742 171.33032227 368.33771484 171.50048828 369.54199219 C176.18084278 404.36150642 176.18034075 441.24370403 171 476 C170.82839355 477.15580566 170.65678711 478.31161133 170.47998047 479.50244141 C160.11925756 546.78695737 131.92933331 608.94038177 99 668 C97.87755205 670.02471069 96.75515794 672.04945123 95.6328125 674.07421875 C89.85118915 684.47417399 83.96950862 694.80573827 77.9375 705.0625 C71.54636173 715.93989688 65.51375365 726.98802225 59.55712891 738.10791016 C57.5722129 741.79453841 55.55465056 745.46269054 53.53588867 749.13085938 C12.96713361 822.96801027 -17.53057926 899.88172786 -17.375 985.0625 C-17.37368576 986.83255402 -17.37368576 986.83255402 -17.37234497 988.6383667 C-17.28925127 1022.75278656 -13.41329073 1056.40841602 -4.85546875 1089.49414062 C-4.57165344 1090.59178741 -4.57165344 1090.59178741 -4.28210449 1091.71160889 C-3.91529674 1093.11004852 -3.54045046 1094.5064123 -3.15637207 1095.90020752 C-2.29201809 1099.16375847 -1.9065572 1100.71967159 -3 1104 C-31.57443025 1067.5480299 -56.6840226 1028.11287112 -78 987 C-78.8677002 985.33831787 -78.8677002 985.33831787 -79.75292969 983.64306641 C-98.44065022 947.70553876 -112.99008849 910.28220222 -123 871 C-123.36883301 869.5754248 -123.36883301 869.5754248 -123.74511719 868.12207031 C-146.87869641 777.66680547 -132.42951939 683.61768357 -88 575 C-87.71102844 574.34404846 -87.42205688 573.68809692 -87.12432861 573.01226807 C-75.14061911 545.86741915 -62.13047446 519.23362881 -48.859375 492.69921875 C-48.54356602 492.06776003 -48.22775703 491.43630131 -47.90237808 490.78570747 C-44.71671927 484.41708572 -41.52805681 478.04999236 -38.33021164 471.68747997 C2.08109108 391.27664919 38.95203389 308.551849 46 207 C46.02046387 206.0733252 46.04092773 205.14665039 46.06201172 204.19189453 C47.37422313 136.16295071 30.81259478 70.02034049 2.79638672 8.35058594 C2.42916504 7.54137695 2.06194336 6.73216797 1.68359375 5.8984375 C1.19524048 4.83761963 1.19524048 4.83761963 0.69702148 3.75537109 C0 2 0 2 0 0 Z " fill="#EC1E24" transform="translate(626,88)"/>
<path d="M0 0 C4.1837833 3.75362502 6.05772833 8.81394532 8.4375 13.8125 C8.9631958 14.9154541 9.4888916 16.0184082 10.03051758 17.15478516 C30.17774256 60.0863849 46.6992734 107.21243572 48 155 C48.03996094 156.14082031 48.07992187 157.28164063 48.12109375 158.45703125 C49.19341441 216.67773547 23.47231114 265.01931091 -11 310 C-11.86202764 311.13017136 -12.72400852 312.26037839 -13.5859375 313.390625 C-17.7648279 318.85633532 -21.99587349 324.28022057 -26.25 329.6875 C-26.70068848 330.26089111 -27.15137695 330.83428223 -27.61572266 331.42504883 C-29.62764225 333.98456045 -31.6397264 336.54390106 -33.65771484 339.09863281 C-42.12975762 349.83164153 -50.25181662 360.73317146 -58 372 C-58.64098633 372.92063232 -58.64098633 372.92063232 -59.29492188 373.85986328 C-90.00071869 418.01441588 -103.64898707 464.74476396 -107 518 C-110.09238394 515.09689035 -111.78843169 511.83999232 -113.625 508.0625 C-113.97199951 507.352146 -114.31899902 506.64179199 -114.67651367 505.90991211 C-115.41689293 504.38334501 -116.1530162 502.85470772 -116.88525391 501.32421875 C-117.60645553 499.82053074 -118.33483768 498.32025663 -119.07177734 496.82421875 C-147.47906431 438.99370332 -154.47748037 373.64103895 -134.18139648 312.08666992 C-130.17119258 300.38901053 -125.34602841 289.14224868 -120 278 C-119.3510376 276.63053223 -119.3510376 276.63053223 -118.68896484 275.23339844 C-111.27541648 259.66362065 -102.81220076 244.83593052 -93.87939453 230.10498047 C-92.18642276 227.3079923 -90.50867949 224.50283927 -88.83984375 221.69140625 C-84.21784984 213.91375388 -79.51271554 206.19752435 -74.68969727 198.54272461 C-35.53457764 136.38034389 -5.66716297 74.41879795 0 0 Z " fill="#002F66" transform="translate(771,712)"/>
</svg>
